<svg width="570" height="382" viewBox="0 0 570 382" fill="none" xmlns="http://www.w3.org/2000/svg">
<path d="M246.46 205.158V208.516L240.475 210.571L246.46 212.626V215.984L236.385 212.329V208.813L246.46 205.158ZM246.759 219.461L253.279 200.851H257.23L250.711 219.461H246.759ZM257.337 205.158L267.412 208.813V212.329L257.337 215.984V212.626L263.323 210.571L257.337 208.516V205.158Z" fill="#323247"/>
<path d="M354.766 144.768C353.609 170.13 328.673 189.568 309.997 190.748C285.318 192.301 267.682 170.037 265.22 144.768C263.085 122.869 270.85 123.187 276.659 114.07C283.648 103.012 296.757 96.9001 309.997 96.9001C334.723 96.9001 356.327 110.638 354.766 144.768Z" fill="black"/>
<path d="M327.345 188.38H292.64V231.821H327.345V188.38Z" fill="#E3B5AA"/>
<path d="M348.973 163.033C355.185 153.644 363.036 153.232 366.329 164.337C369.622 175.442 358.765 184.59 349.928 181.22C341.091 177.849 348.973 163.033 348.973 163.033Z" fill="#E3B5AA"/>
<path d="M356.272 163.281C360.419 162.504 362.546 174.875 353.453 175.287L355.317 170.977L353.562 167.389L356.272 163.281Z" fill="#D78F97"/>
<path d="M352.094 176.98C357.398 171.326 353.569 167.389 353.569 167.389C353.569 167.389 358.617 157.045 360.636 164.974" stroke="#C87E84" stroke-width="0.388283" stroke-miterlimit="10"/>
<path d="M270.725 163.033C264.513 153.644 256.654 153.232 253.369 164.337C250.084 175.442 260.933 184.59 269.77 181.22C278.607 177.849 270.725 163.033 270.725 163.033Z" fill="#E3B5AA"/>
<path d="M263.418 163.281C259.272 162.504 257.144 174.875 266.237 175.287L264.366 170.977L266.121 167.389L263.418 163.281Z" fill="#D78F97"/>
<path d="M267.596 176.98C262.3 171.326 266.12 167.389 266.12 167.389C266.12 167.389 261.08 157.045 259.053 164.974" stroke="#C87E84" stroke-width="0.388283" stroke-miterlimit="10"/>
<path d="M327.345 189.335V205.503C314.873 222.401 292.64 216.911 292.64 216.911L293.028 189.343L327.345 189.335Z" fill="#C87E84"/>
<path d="M297.82 117.603H322.165C328.884 117.603 335.327 120.272 340.077 125.023C344.828 129.774 347.497 136.217 347.497 142.935V170.348C347.497 180.296 343.545 189.836 336.511 196.87C329.477 203.904 319.936 207.856 309.988 207.856C300.041 207.856 290.5 203.904 283.466 196.87C276.432 189.836 272.48 180.296 272.48 170.348V142.935C272.48 139.608 273.136 136.313 274.409 133.24C275.683 130.165 277.55 127.373 279.903 125.02C282.256 122.668 285.049 120.802 288.123 119.529C291.198 118.257 294.493 117.603 297.82 117.603Z" fill="#E3B5AA"/>
<path d="M315.766 175.217C315.66 176.672 315.006 178.033 313.937 179.026C312.868 180.019 311.463 180.571 310.004 180.571C308.545 180.571 307.14 180.019 306.071 179.026C305.002 178.033 304.349 176.672 304.242 175.217" stroke="#B83D5D" stroke-width="0.776567" stroke-miterlimit="10"/>
<path d="M276.448 119.304C276.448 119.304 269.879 108.432 278.102 98.8105C278.102 98.7872 284.051 109.737 276.448 119.304Z" fill="black"/>
<path d="M279.788 116.695C279.788 116.695 270.64 125.532 259.442 119.654C259.442 119.654 268.792 111.445 279.788 116.695Z" fill="black"/>
<path d="M295.095 161.79C295.095 164.896 293.774 167.405 292.151 167.405C290.528 167.405 289.2 164.889 289.2 161.79C289.2 158.691 290.521 156.175 292.151 156.175C293.782 156.175 295.095 158.684 295.095 161.79Z" fill="#36364F"/>
<path d="M305.176 165.326C307.36 157.288 302.614 149.002 294.577 146.819C286.539 144.635 278.253 149.38 276.069 157.418C273.886 165.455 278.631 173.741 286.669 175.925C294.706 178.109 302.992 173.363 305.176 165.326Z" stroke="white" stroke-width="3.10627" stroke-miterlimit="10"/>
<path d="M330.786 161.79C330.786 164.896 329.465 167.405 327.835 167.405C326.204 167.405 324.891 164.889 324.891 161.79C324.891 158.691 326.212 156.175 327.835 156.175C329.458 156.175 330.786 158.684 330.786 161.79Z" fill="#36364F"/>
<path d="M343.891 165.382C346.114 157.356 341.409 149.047 333.382 146.823C325.355 144.601 317.047 149.305 314.823 157.333C312.6 165.359 317.305 173.668 325.332 175.891C333.359 178.114 341.668 173.409 343.891 165.382Z" stroke="white" stroke-width="3.10627" stroke-miterlimit="10"/>
<path d="M277.133 128.304C277.133 128.304 300.965 115.747 316.8 124.849C332.634 133.95 334.412 152.759 350.044 147.889C350.044 147.889 361.918 142.663 348.856 124.453C335.794 106.242 326.856 102.709 309.857 106.646C292.858 110.583 281.784 113.682 277.133 128.304Z" fill="#342E2F"/>
<path d="M276.224 128.126C276.224 128.126 284.091 117.697 295.095 114.924C306.099 112.152 318.291 125.711 318.291 125.711C318.291 125.711 290.078 121.704 276.224 128.126Z" fill="#161616"/>
<path d="M272.543 141.242C272.543 141.242 275.199 160.602 272.543 172.413C272.543 172.413 268.668 142.399 272.543 141.242Z" fill="#342E2F"/>
<path d="M347.225 141.242C347.225 141.242 344.577 160.602 347.225 172.413C347.225 172.413 351.108 142.399 347.225 141.242Z" fill="#342E2F"/>
<path d="M298.868 139.736C294.775 137.779 287.499 135.628 280.758 140.427C280.497 140.603 280.296 140.854 280.181 141.147C280.066 141.44 280.043 141.761 280.115 142.068C280.186 142.374 280.349 142.652 280.582 142.864C280.815 143.075 281.107 143.211 281.418 143.253C284.32 143.751 287.258 143.996 290.201 143.983C293.035 143.87 295.847 143.432 298.581 142.679C298.902 142.609 299.193 142.439 299.411 142.193C299.63 141.948 299.766 141.639 299.797 141.312C299.829 140.984 299.756 140.656 299.589 140.372C299.422 140.089 299.17 139.866 298.868 139.736Z" fill="#342E2F"/>
<path d="M338.411 139.736C334.318 137.779 327.042 135.628 320.294 140.427C320.033 140.603 319.831 140.855 319.717 141.149C319.602 141.442 319.58 141.764 319.652 142.071C319.724 142.377 319.889 142.655 320.123 142.866C320.356 143.077 320.649 143.212 320.961 143.253C323.863 143.752 326.801 143.996 329.744 143.983C332.578 143.87 335.39 143.432 338.123 142.679C338.445 142.609 338.736 142.439 338.954 142.193C339.173 141.948 339.308 141.639 339.34 141.312C339.372 140.984 339.299 140.656 339.132 140.372C338.965 140.089 338.713 139.866 338.411 139.736Z" fill="#342E2F"/>
<path d="M322.678 188.799C322.262 189.563 321.767 190.281 321.203 190.942C319.199 193.357 315.767 195.672 309.958 195.78H309.531C304.095 195.672 300.694 193.614 298.659 191.338C297.944 190.566 297.334 189.705 296.842 188.776C296.28 187.729 295.869 186.607 295.623 185.444L323.944 185.499C323.69 186.656 323.263 187.768 322.678 188.799Z" fill="#C33E5D"/>
<path d="M322.678 188.799C322.262 189.563 321.767 190.281 321.202 190.942C317.642 189.35 313.776 188.559 309.877 188.625C305.977 188.691 302.14 189.611 298.635 191.323C297.921 190.551 297.31 189.69 296.818 188.76C296.256 187.713 295.846 186.591 295.599 185.429L323.92 185.483C323.675 186.645 323.257 187.762 322.678 188.799Z" fill="#36364F"/>
<path d="M430.379 339.733L176.442 339.997C176.442 339.997 181.18 330.088 187.998 316.956L189.551 313.982C198.87 296.221 211.388 273.786 221.165 261.618C232.425 247.639 259.03 237.622 277.077 232.163C287.608 228.986 295.234 227.348 295.234 227.348H324.433C324.433 227.348 331.283 228.815 340.959 231.681C359.014 237.016 385.999 247.989 398.525 261.618C401.459 264.902 404.059 268.468 406.29 272.264C421.713 297.868 430.379 339.733 430.379 339.733Z" fill="#EBA154"/>
<path opacity="0.5" d="M430.379 339.733L176.442 339.997C176.442 339.997 181.18 330.088 187.998 316.956C314.703 354.231 381.472 293.162 396.708 276.636C397.927 275.312 399.398 274.245 401.036 273.498C402.674 272.751 404.445 272.34 406.244 272.288H406.306C421.713 297.868 430.379 339.733 430.379 339.733Z" fill="#D9751F"/>
<path d="M306.013 163.933H313.973" stroke="white" stroke-width="3.10627" stroke-miterlimit="10"/>
<path d="M340.982 231.673C309.554 266.254 277.133 232.163 277.133 232.163C287.663 228.979 295.289 227.34 295.289 227.34H324.433C324.433 227.34 331.306 228.8 340.982 231.673Z" fill="#E3B5AA"/>
<path d="M240.594 300.601V340.043" stroke="#DC831E" stroke-width="2.3297" stroke-miterlimit="10"/>
<path d="M240.594 325.739L230.01 312.242" stroke="#DC831E" stroke-width="2.3297" stroke-miterlimit="10"/>
<path d="M378.669 300.601V340.043" stroke="#DC831E" stroke-width="2.3297" stroke-miterlimit="10"/>
<path d="M378.669 325.739L388.073 313.749" stroke="#DC831E" stroke-width="2.3297" stroke-miterlimit="10"/>
<path d="M275.626 247.174C275.626 247.174 314.602 273.787 340.982 245.877" stroke="#DC831E" stroke-width="2.3297" stroke-miterlimit="10"/>
<path d="M364.141 276.688H369.69L359.245 300.819H353.73L343.319 276.688H349.352L356.694 293.924L364.141 276.688Z" fill="white"/>
<path d="M276.232 111.997C284.984 75.2185 372.643 79.2643 356.335 150.872C351.442 172.32 315.72 102.119 284.891 119.335C283.769 119.966 282.476 120.224 281.199 120.071C279.922 119.92 278.726 119.365 277.785 118.489C276.007 116.835 275.665 114.357 276.232 111.997Z" fill="black"/>
<path d="M324.378 339.756H324.294C324.078 339.768 323.863 339.768 323.648 339.756H153.589C151.693 339.754 149.876 339 148.536 337.658C147.196 336.317 146.444 334.499 146.444 332.604V332.526L119.963 257.704C119.493 256.379 119.348 254.96 119.54 253.568C119.733 252.175 120.256 250.849 121.068 249.701C121.878 248.553 122.953 247.615 124.202 246.969C125.45 246.323 126.835 245.985 128.242 245.985H238.63C240.448 245.985 242.22 246.547 243.704 247.595C245.188 248.644 246.31 250.128 246.916 251.841L275.454 332.464L275.501 332.604H323.812C328.246 332.65 328.735 339.282 324.378 339.756Z" fill="#80ABBD"/>
<path d="M190.515 310.053C197.203 307.753 200.361 299.306 197.568 291.187C194.775 283.067 187.09 278.35 180.402 280.65C173.714 282.95 170.557 291.397 173.349 299.517C176.142 307.636 183.827 312.353 190.515 310.053Z" fill="white"/>
<path d="M323.812 332.65H275.509L275.471 332.503L246.916 251.88C246.31 250.167 245.188 248.685 243.704 247.638C242.219 246.59 240.447 246.029 238.63 246.032H234.942C234.942 246.032 243.189 246.568 245.254 253.953C247.32 261.338 275.509 339.647 275.509 339.647L277.591 339.795H323.657C323.874 339.795 324.092 339.795 324.301 339.795C328.743 339.368 328.316 332.65 323.812 332.65Z" fill="#4B7195"/>
<path opacity="0.4" d="M324.378 339.756H324.293C324.078 339.768 323.863 339.768 323.648 339.756H153.588C152.515 339.757 151.455 339.515 150.487 339.048C149.52 338.582 148.671 337.902 148.004 337.061C248.523 345.697 238.63 245.985 238.63 245.985C240.447 245.985 242.22 246.547 243.704 247.595C245.188 248.644 246.31 250.128 246.916 251.841L275.455 332.464L275.501 332.604H323.05C323.563 335.003 324.013 337.372 324.378 339.756Z" fill="#5A93A0"/>
<path d="M122.16 290.405V292.906C117.641 293.426 116.53 297.254 116.53 301.906V303.459C116.53 308.119 117.641 311.939 122.16 312.46V314.945H35.6588C33.9555 314.945 32.322 314.268 31.1177 313.064C29.9132 311.859 29.2366 310.225 29.2366 308.522V296.874C29.2356 296.03 29.4009 295.193 29.7231 294.413C30.0453 293.632 30.5181 292.923 31.1144 292.325C31.7108 291.728 32.419 291.253 33.1988 290.928C33.9785 290.605 34.8144 290.437 35.6588 290.436L122.16 290.405Z" fill="#4B7195"/>
<path d="M120.818 309.889C120.931 310.174 120.972 310.483 120.938 310.788C120.904 311.093 120.796 311.385 120.622 311.638C120.449 311.891 120.216 312.098 119.944 312.24C119.672 312.382 119.369 312.454 119.062 312.452L36.3967 312.506V292.851L119.062 292.906C119.518 292.906 119.958 293.075 120.297 293.379C120.597 293.625 120.81 293.961 120.904 294.338C120.997 294.714 120.967 295.11 120.818 295.468C120.126 297.107 120.157 299.351 120.157 301.906V303.459C120.196 305.975 120.126 308.251 120.818 309.889Z" fill="white"/>
<path opacity="0.4" d="M120.297 293.379C118.744 293.465 45.6612 297.262 40.6523 304.337C39.2933 306.262 37.7557 307.334 36.3967 307.552V292.851L119.062 292.906C119.518 292.906 119.958 293.075 120.297 293.379Z" fill="#A3D5E6"/>
<path d="M33.3834 290.413H40.6521V314.945H33.3834C32.2837 314.945 31.2289 314.507 30.4512 313.73C29.6735 312.952 29.2366 311.897 29.2366 310.798V294.56C29.2366 293.46 29.6735 292.405 30.4512 291.627C31.2289 290.85 32.2837 290.413 33.3834 290.413Z" fill="#4B7195"/>
<path opacity="0.4" d="M120.818 309.889C120.931 310.174 120.972 310.482 120.938 310.788C120.904 311.093 120.796 311.385 120.622 311.638C120.449 311.891 120.216 312.098 119.944 312.24C119.672 312.381 119.369 312.454 119.063 312.452H102.553C115.669 310.961 114.846 300.19 114.846 300.19C114.993 299.677 104.486 293.356 104.665 292.89H119.063C119.518 292.891 119.957 293.059 120.297 293.364C120.597 293.609 120.81 293.945 120.904 294.322C120.997 294.698 120.967 295.095 120.818 295.453C120.126 297.091 120.158 299.336 120.158 301.89V303.444C120.196 305.975 120.126 308.251 120.818 309.889Z" fill="#A3D5E6"/>
<path opacity="0.4" d="M120.149 301.246H40.7917V303.016H120.149V301.246Z" fill="#A3D5E6"/>
<path opacity="0.4" d="M120.149 297.254H40.7917V299.025H120.149V297.254Z" fill="#A3D5E6"/>
<path opacity="0.4" d="M120.149 306.325H40.7917V308.095H120.149V306.325Z" fill="#A3D5E6"/>
<path d="M94.5922 308.841L90.3754 304.632L86.1509 308.841V297.254H94.5922V308.841Z" fill="#C33E5D"/>
<path d="M131.418 314.859V317.329C126.89 317.849 125.788 321.67 125.788 326.329V327.882C125.788 332.542 126.89 336.37 131.418 336.883V339.375H44.9156C43.2115 339.375 41.5773 338.699 40.3716 337.495C39.166 336.291 38.4876 334.657 38.4856 332.953V321.305C38.4856 319.599 39.1628 317.962 40.3684 316.755C41.5741 315.548 43.2095 314.869 44.9156 314.867L131.418 314.859Z" fill="#C33E5D"/>
<path d="M130.066 334.335C130.179 334.62 130.221 334.93 130.187 335.234C130.153 335.539 130.044 335.831 129.871 336.084C129.698 336.337 129.465 336.544 129.193 336.686C128.92 336.828 128.617 336.9 128.311 336.898L45.6453 336.96V317.329L128.311 317.391C128.768 317.389 129.21 317.555 129.553 317.857C129.851 318.105 130.062 318.444 130.155 318.82C130.247 319.198 130.215 319.595 130.066 319.953C129.382 321.592 129.406 323.836 129.406 326.391V327.944C129.406 330.429 129.382 332.705 130.066 334.335Z" fill="white"/>
<path opacity="0.4" d="M129.553 317.826C127.961 317.911 54.9097 321.708 49.9086 328.791C48.5496 330.717 47.0043 331.788 45.6453 332.006V317.329L128.311 317.391C128.764 317.381 129.205 317.535 129.553 317.826Z" fill="#A3D5E6"/>
<path d="M42.64 314.859H49.9087V339.391H42.64C41.5402 339.391 40.4855 338.954 39.7077 338.176C38.9301 337.398 38.4932 336.344 38.4932 335.244V319.014C38.4922 318.469 38.5986 317.928 38.8066 317.424C39.0146 316.92 39.3198 316.462 39.705 316.076C40.0902 315.691 40.5477 315.384 41.0513 315.175C41.5549 314.966 42.0948 314.859 42.64 314.859Z" fill="#C33E5D"/>
<path opacity="0.4" d="M130.066 334.335C130.179 334.62 130.221 334.929 130.187 335.234C130.153 335.539 130.045 335.831 129.871 336.084C129.698 336.337 129.465 336.544 129.193 336.686C128.92 336.828 128.618 336.9 128.311 336.898H111.809C124.918 335.423 124.079 324.652 124.079 324.652C124.219 324.131 113.72 317.818 113.898 317.344H128.288C128.745 317.343 129.187 317.508 129.531 317.81C129.829 318.059 130.039 318.397 130.132 318.774C130.224 319.151 130.193 319.549 130.043 319.907C129.36 321.545 129.383 323.79 129.383 326.345V327.898C129.406 330.429 129.383 332.705 130.066 334.335Z" fill="#A3D5E6"/>
<path opacity="0.4" d="M129.406 325.692H50.0488V327.463H129.406V325.692Z" fill="#A3D5E6"/>
<path opacity="0.4" d="M129.406 321.701H50.0488V323.471H129.406V321.701Z" fill="#A3D5E6"/>
<path opacity="0.4" d="M129.406 330.771H50.0488V332.542H129.406V330.771Z" fill="#A3D5E6"/>
<path d="M120.724 334.832L116.267 330.383L111.809 334.832V322.594H120.724V334.832Z" fill="#C33E5D"/>
<path d="M550.298 350.053V351.847C550.295 354.48 549.248 357.004 547.386 358.866C545.523 360.726 542.998 361.772 540.365 361.772H32.4438C30.2471 361.772 28.1123 361.044 26.3729 359.702C24.6336 358.36 23.3877 356.48 22.8299 354.355C22.6236 353.543 22.5193 352.708 22.5193 351.87V350.076C22.5162 348.771 22.7707 347.478 23.2681 346.271C23.7655 345.064 24.496 343.968 25.4178 343.044C26.3397 342.12 27.4348 341.387 28.6404 340.887C29.8461 340.386 31.1385 340.129 32.4438 340.129H540.319C541.626 340.122 542.922 340.375 544.132 340.87C545.342 341.366 546.442 342.096 547.369 343.018C548.296 343.941 549.032 345.037 549.534 346.244C550.038 347.451 550.296 348.745 550.298 350.053Z" fill="#47547C"/>
<path opacity="0.5" d="M550.298 350.053V351.847C550.295 354.48 549.248 357.004 547.386 358.865C545.523 360.726 542.998 361.772 540.365 361.772H32.4438C30.2471 361.772 28.1123 361.044 26.3729 359.702C24.6336 358.36 23.3877 356.48 22.8299 354.355C22.6202 352.802 22.5193 351.87 22.5193 351.87C307.349 361.772 540.365 340.129 540.365 340.129C542.998 340.129 545.523 341.174 547.386 343.035C549.248 344.896 550.295 347.421 550.298 350.053Z" fill="#2B2B3F"/>
<path d="M537.631 77.9364C537.631 77.8742 537.631 77.8121 537.631 77.75C537.631 77.6879 537.631 77.6335 537.631 77.5714C538.596 77.135 539.528 76.6288 540.419 76.0571C541.452 75.358 542.428 74.5791 543.339 73.7274L543.137 72.9508C542.911 72.0545 542.623 71.1749 542.275 70.3183C542.096 69.8989 541.887 69.4873 541.685 69.0757C541.498 68.6551 541.277 68.25 541.025 67.8643L540.605 67.1732C539.354 67.1899 538.106 67.3199 536.878 67.5614C535.843 67.7771 534.828 68.0757 533.841 68.4545L533.585 68.1982C534.409 66.0371 534.843 63.747 534.867 61.4343L534.175 61.015C533.789 60.7577 533.381 60.5343 532.956 60.3471C532.545 60.1452 532.133 59.9355 531.706 59.7569C530.853 59.4153 529.979 59.1299 529.089 58.9027L528.312 58.7008C527.454 59.6062 526.675 60.583 525.983 61.6207C525.396 62.5099 524.877 63.4418 524.429 64.4086H524.259H524.072C523.628 63.4402 523.109 62.5081 522.519 61.6207C521.827 60.5828 521.048 59.606 520.189 58.7008L519.413 58.9027C518.52 59.1288 517.643 59.4142 516.788 59.7569C516.369 59.9355 515.957 60.1452 515.538 60.3471C515.114 60.536 514.706 60.7593 514.319 61.015L513.627 61.4343C513.655 62.6832 513.787 63.9276 514.023 65.1541C514.243 66.1902 514.541 67.2079 514.917 68.1982L514.66 68.4545C513.674 68.0768 512.658 67.7781 511.624 67.5614C510.396 67.3203 509.148 67.1904 507.896 67.1732L507.469 67.8643C507.224 68.2535 507.003 68.6581 506.809 69.0757C506.615 69.4873 506.405 69.8989 506.227 70.3183C505.876 71.1736 505.588 72.0535 505.365 72.9508L505.163 73.7274C506.072 74.5808 507.049 75.36 508.083 76.0571C508.97 76.6303 509.9 77.1365 510.863 77.5714C510.863 77.6335 510.863 77.6879 510.863 77.75C510.863 77.8121 510.863 77.8742 510.863 77.9364C509.898 78.381 508.968 78.9001 508.083 79.4895C507.045 80.1814 506.068 80.9611 505.163 81.8192L505.365 82.5958C505.589 83.4904 505.877 84.3671 506.227 85.2206C506.405 85.6399 506.615 86.0515 506.809 86.4708C507.005 86.8847 507.225 87.287 507.469 87.6745L507.896 88.3734C509.148 88.3525 510.395 88.2228 511.624 87.9851C512.658 87.7662 513.674 87.4648 514.66 87.0843L514.917 87.3406C514.541 88.3307 514.243 89.3488 514.023 90.3847C513.787 91.614 513.655 92.8612 513.627 94.1123L514.319 94.5394C514.71 94.784 515.118 95.0022 515.538 95.1917C515.957 95.3936 516.369 95.6033 516.788 95.7819C517.641 96.1313 518.518 96.4171 519.413 96.6361L520.189 96.838C521.816 95.187 523.132 93.2565 524.072 91.138H524.259H524.429C524.881 92.1033 525.399 93.0352 525.983 93.9259C526.673 94.9626 527.453 95.9372 528.312 96.838L529.089 96.6361C529.981 96.4163 530.856 96.1306 531.706 95.7819C532.133 95.6033 532.545 95.3936 532.956 95.1917C533.378 95.0038 533.786 94.7855 534.175 94.5394L534.867 94.1123C534.844 91.7973 534.41 89.5041 533.585 87.3406C533.671 87.2629 533.748 87.1775 533.841 87.0843C534.828 87.4656 535.843 87.7669 536.878 87.9851C538.107 88.2228 539.354 88.3525 540.605 88.3734L541.025 87.6745C541.275 87.2909 541.496 86.8879 541.685 86.4708C541.887 86.0515 542.096 85.6399 542.275 85.2206C542.622 84.3663 542.909 83.4896 543.137 82.5958L543.339 81.8192C542.433 80.9627 541.456 80.1838 540.419 79.4895C539.531 78.9016 538.599 78.3825 537.631 77.9364ZM524.243 84.1489C522.977 84.1489 521.738 83.773 520.684 83.0695C519.63 82.3651 518.809 81.3649 518.324 80.1938C517.84 79.0236 517.712 77.7352 517.96 76.4923C518.207 75.2496 518.817 74.108 519.713 73.212C520.609 72.316 521.75 71.7059 522.994 71.4586C524.236 71.2115 525.524 71.3383 526.695 71.8232C527.866 72.3081 528.866 73.1293 529.57 74.1829C530.274 75.2365 530.65 76.4751 530.65 77.7422C530.651 78.584 530.486 79.4181 530.164 80.1962C529.843 80.9743 529.372 81.6817 528.776 82.2774C528.181 82.873 527.474 83.3459 526.697 83.6682C525.919 83.9905 525.086 84.1567 524.243 84.1567V84.1489Z" fill="#EBA154"/>
<path d="M505.87 87.6434H462.623V130.23H474.628" stroke="#FD783D" stroke-width="0.776567" stroke-miterlimit="10" stroke-dasharray="3.11 3.11"/>
<path d="M499.433 153.023H475.662V157.27H499.433V153.023Z" fill="white"/>
<path d="M512.215 160.889H475.662V165.137H512.215V160.889Z" fill="white"/>
<path d="M488.11 168.748H475.662V172.996H488.11V168.748Z" fill="white"/>
<path d="M505.637 168.748H493.188V172.996H505.637V168.748Z" fill="#EBA154"/>
<path d="M527.971 168.748H510.094V172.996H527.971V168.748Z" fill="#EBA154"/>
<path d="M527.971 160.889H517.114V165.137H527.971V160.889Z" fill="#EBA154"/>
<path d="M527.971 153.023H504.201V157.27H527.971V153.023Z" fill="#EBA154"/>
<path d="M536.676 125.509H535.884V172.864H536.676V125.509Z" fill="white"/>
<path d="M500.472 127.248H476.026V131.62H500.472V127.248Z" fill="white"/>
<path d="M513.612 135.332H476.026V139.704H513.612V135.332Z" fill="white"/>
<path d="M488.824 143.417H476.026V147.789H488.824V143.417Z" fill="white"/>
<path d="M506.856 143.417H494.058V147.789H506.856V143.417Z" fill="#EBA154"/>
<path d="M529.819 143.417H511.438V147.789H529.819V143.417Z" fill="#EBA154"/>
<path d="M529.827 135.332H518.66V139.704H529.827V135.332Z" fill="#EBA154"/>
<path d="M529.819 127.248H505.373V131.62H529.819V127.248Z" fill="#EBA154"/>
<path d="M433.696 45.8177H386.644C380.21 45.8177 374.996 51.0329 374.996 57.4663V172.414C374.996 178.847 380.21 184.062 386.644 184.062H433.696C440.129 184.062 445.345 178.847 445.345 172.414V57.4663C445.345 51.0329 440.129 45.8177 433.696 45.8177Z" fill="#49496B"/>
<path d="M435.832 75.2184H383.009V80.8252H435.832V75.2184Z" fill="white"/>
<path d="M417.971 87.6434H383.009V93.2502H417.971V87.6434Z" fill="white"/>
<path d="M435.831 87.6434H423.165V93.2502H435.831V87.6434Z" fill="#EBA154"/>
<path d="M435.832 100.061H403.1V105.668H435.832V100.061Z" fill="#EBA154"/>
<path d="M398.338 100.061H383.009V105.668H398.338V100.061Z" fill="white"/>
<path d="M410.927 112.486H383.009V118.093H410.927V112.486Z" fill="white"/>
<path d="M435.832 112.486H415.229V118.093H435.832V112.486Z" fill="#EBA154"/>
<path d="M435.832 124.911H398.339V130.518H435.832V124.911Z" fill="#EBA154"/>
<path d="M394.34 124.911H383.009V130.518H394.34V124.911Z" fill="white"/>
<path d="M405.677 137.328H383.009V142.935H405.677V137.328Z" fill="white"/>
<path d="M435.832 137.328H409.421V142.935H435.832V137.328Z" fill="#EBA154"/>
<path d="M434.27 170.433V171.986L428.492 174.215V172.662L432.531 171.194L428.492 169.781V168.228L434.27 170.433Z" fill="#EBA154"/>
<path d="M417.838 168.228V169.781L413.792 171.264L417.838 172.732V174.285L412.052 172.087V170.534L417.838 168.228Z" fill="#EBA154"/>
<path d="M424.673 163.98H426.482L422.188 176.234H420.378L424.673 163.98Z" fill="#EBA154"/>
<path d="M407.727 62.5526V64.6182L400.148 67.4993V65.5113L405.452 63.5854L400.148 61.644V59.6715L407.727 62.5526Z" fill="#EBA154"/>
<path d="M393.795 59.6715V61.644L388.491 63.5854L393.795 65.5113V67.4993L386.216 64.6182V62.5526L393.795 59.6715Z" fill="#EBA154"/>
<path d="M382.767 24.205H386.145V34.2234H382.767V30.5309H379.647V34.2234H376.269V24.205H379.647V27.7543H382.767V24.205ZM389.948 34.2234V26.8241H387.014V24.205H396.259V26.8241H393.325V34.2234H389.948ZM409.158 34.2234H406.081L406.053 29.6579L403.878 33.3218H402.389L400.214 29.8153V34.2234H397.136V24.205H399.913L403.176 29.5434L406.353 24.205H409.129L409.158 34.2234ZM410.791 34.2234V24.205H414.169V31.6043H418.692V34.2234H410.791Z" fill="#8A27FA"/>
<path d="M49.4661 187.448C48.0193 186.023 46.3347 184.861 44.4883 184.015L44.3873 183.969C42.1703 182.962 39.7693 182.423 37.3347 182.388C34.9001 182.352 32.4842 182.819 30.2383 183.759L29.881 183.914C26.7834 185.297 24.1492 187.542 22.2932 190.381C20.4372 193.221 19.4379 196.534 19.4145 199.926C19.3912 203.318 20.3449 206.645 22.1617 209.51C23.9784 212.375 26.5816 214.656 29.6599 216.081C32.7383 217.506 36.1617 218.013 39.5213 217.545C42.8809 217.077 46.0346 215.651 48.6056 213.438C51.1767 211.225 53.0563 208.319 54.0199 205.066C54.9836 201.814 54.9906 198.353 54.04 195.097C53.8151 194.329 53.5402 193.577 53.2169 192.845C52.3186 190.825 51.0459 188.994 49.4661 187.448ZM42.0731 211.234C39.7213 212.285 37.0978 212.568 34.5757 212.042C32.0537 211.517 29.7618 210.21 28.0259 208.306C26.29 206.402 25.1987 203.999 24.9072 201.44C24.6156 198.88 25.1387 196.294 26.402 194.049L26.4409 193.971C27.7264 191.703 29.7051 189.906 32.0865 188.846C32.5467 188.644 33.0187 188.47 33.4998 188.325L33.6474 188.279C36.0499 187.571 38.6121 187.62 40.986 188.418C42.99 189.095 44.7868 190.274 46.2045 191.843C47.0626 192.792 47.7627 193.872 48.2779 195.043C48.6085 195.772 48.8686 196.531 49.0545 197.31C49.6809 200.08 49.3275 202.982 48.0545 205.521C46.7815 208.06 44.6677 210.079 42.0731 211.234Z" fill="#64648E"/>
<path d="M44.4882 184.015C48.3718 185.803 51.4737 188.941 53.2168 192.845C53.54 193.577 53.815 194.329 54.0399 195.097L49.0311 197.318C48.8452 196.539 48.5851 195.78 48.2545 195.05C47.7393 193.88 47.0392 192.8 46.1811 191.851C44.7707 190.282 42.9822 189.1 40.9858 188.418L44.4183 183.969" fill="#EBA154"/>
<path d="M40.986 188.418C38.6216 187.626 36.0713 187.577 33.6785 188.279L33.5309 188.325L30.2383 183.759C32.4847 182.819 34.9008 182.354 37.3355 182.392C39.7701 182.429 42.1709 182.969 44.3873 183.977" fill="#B83D5D"/>
<path d="M38.4856 217.711V219.264" stroke="#FD783D" stroke-width="0.776567" stroke-miterlimit="10"/>
<path d="M38.4856 222.23V244.525" stroke="#FD783D" stroke-width="0.776567" stroke-miterlimit="10" stroke-dasharray="2.97 2.97"/>
<path d="M38.4856 246.009V247.562H40.0387" stroke="#FD783D" stroke-width="0.776567" stroke-miterlimit="10"/>
<path d="M43.2383 247.562H86.3846" stroke="#FD783D" stroke-width="0.776567" stroke-miterlimit="10" stroke-dasharray="3.2 3.2"/>
<path d="M87.9834 247.562H89.5365V246.009" stroke="#FD783D" stroke-width="0.776567" stroke-miterlimit="10"/>
<path d="M89.5366 242.988V220.304" stroke="#FD783D" stroke-width="0.776567" stroke-miterlimit="10" stroke-dasharray="3.02 3.02"/>
<path d="M89.5366 218.79V217.237" stroke="#FD783D" stroke-width="0.776567" stroke-miterlimit="10"/>
<path d="M205.137 37.2209H86.4389C77.8609 37.2209 70.9072 44.1746 70.9072 52.7523V200.238C70.9072 208.816 77.8609 215.769 86.4389 215.769H205.137C213.714 215.769 220.668 208.816 220.668 200.238V52.7523C220.668 44.1746 213.714 37.2209 205.137 37.2209Z" fill="#49496B"/>
<path d="M205.137 28.5236H86.4389C77.8609 28.5236 70.9072 35.4772 70.9072 44.0549V51.1838H220.668V44.0549C220.668 35.4772 213.714 28.5236 205.137 28.5236Z" fill="#64648E"/>
<path d="M203.335 203.484V204.952L197.945 207.002V205.588L201.719 204.222L197.945 202.839V201.434L203.335 203.484Z" fill="#EBA154"/>
<path d="M188.021 201.434V202.839L184.254 204.222L188.021 205.588V207.002L182.639 204.952V203.484L188.021 201.434Z" fill="#EBA154"/>
<path d="M190.393 208.416L194.394 196.996H196.079L192.078 208.416H190.393Z" fill="#EBA154"/>
<path d="M106.388 65.6277V67.4604L99.6785 70.0153V68.2525L104.338 66.544L99.6785 64.8278V63.0728L106.388 65.6277Z" fill="#EBA154"/>
<path d="M94.0415 63.0728V64.8278L89.3821 66.544L94.0415 68.2525V70.0153L87.3242 67.4604V65.6277L94.0415 63.0728Z" fill="#EBA154"/>
<path d="M90.5904 36.4768H92.2562L89.7945 44.0002H87.9245L86.2696 38.9058L84.5604 44.0002H82.7013L80.2295 36.4768H82.035L83.7334 41.7647L85.5063 36.4768H87.1184L88.8385 41.8077L90.5904 36.4768ZM94.9586 42.603H99.0535V44.0002H93.2277V36.4768H98.9137V37.874H94.9586V39.5077H98.4516V40.8619H94.9586V42.603ZM105.963 40.0881C106.801 40.3568 107.339 41.0016 107.339 41.9474C107.339 43.2478 106.307 44.0002 104.329 44.0002H100.439V36.4768H104.114C105.995 36.4768 106.963 37.2615 106.963 38.4329C106.963 39.1852 106.575 39.7656 105.963 40.0881ZM103.899 37.788H102.169V39.5614H103.899C104.748 39.5614 105.211 39.2605 105.211 38.6694C105.211 38.0782 104.748 37.788 103.899 37.788ZM104.201 42.689C105.103 42.689 105.587 42.4095 105.587 41.7647C105.587 41.1306 105.103 40.8296 104.201 40.8296H102.169V42.689H104.201ZM111.701 44.0002V36.4768H115.118C117.579 36.4768 119.267 37.9601 119.267 40.2385C119.267 42.517 117.579 44.0002 115.118 44.0002H111.701ZM113.442 42.5708H115.032C116.526 42.5708 117.504 41.6787 117.504 40.2385C117.504 38.7984 116.526 37.9063 115.032 37.9063H113.442V42.5708ZM122.31 42.603H126.405V44.0002H120.58V36.4768H126.265V37.874H122.31V39.5077H125.803V40.8619H122.31V42.603ZM133.188 36.4768H134.919L131.662 44.0002H129.943L126.697 36.4768H128.578L130.867 41.8507L133.188 36.4768ZM137.278 42.603H141.372V44.0002H135.547V36.4768H141.233V37.874H137.278V39.5077H140.771V40.8619H137.278V42.603ZM142.758 44.0002V36.4768H144.499V42.5816H148.271V44.0002H142.758ZM152.762 44.1292C150.386 44.1292 148.645 42.4741 148.645 40.2385C148.645 38.003 150.386 36.3479 152.762 36.3479C155.126 36.3479 156.878 37.9923 156.878 40.2385C156.878 42.4848 155.126 44.1292 152.762 44.1292ZM152.762 42.646C154.105 42.646 155.115 41.668 155.115 40.2385C155.115 38.8091 154.105 37.8311 152.762 37.8311C151.418 37.8311 150.408 38.8091 150.408 40.2385C150.408 41.668 151.418 42.646 152.762 42.646ZM161.443 36.4768C163.453 36.4768 164.71 37.5193 164.71 39.2068C164.71 40.8834 163.453 41.9259 161.443 41.9259H159.928V44.0002H158.187V36.4768H161.443ZM161.347 40.5072C162.41 40.5072 162.948 40.0235 162.948 39.2068C162.948 38.3792 162.41 37.8955 161.347 37.8955H159.928V40.5072H161.347ZM165.953 44.0002V36.4768H167.694V44.0002H165.953ZM174.66 36.4768H176.38V44.0002H174.95L171.2 39.4324V44.0002H169.48V36.4768H170.92L174.66 41.0446V36.4768ZM183.243 42.3236V40.1203H184.834V43.1727C184.007 43.796 182.868 44.1292 181.793 44.1292C179.428 44.1292 177.687 42.5063 177.687 40.2385C177.687 37.9708 179.428 36.3479 181.825 36.3479C183.147 36.3479 184.243 36.7992 184.974 37.6483L183.856 38.6801C183.308 38.0998 182.674 37.8311 181.911 37.8311C180.449 37.8311 179.45 38.8091 179.45 40.2385C179.45 41.6465 180.449 42.646 181.889 42.646C182.362 42.646 182.803 42.56 183.243 42.3236Z" fill="white"/>
<path d="M140.821 80.9028H96.7976V88.9636H140.821V80.9028Z" fill="#54B3CD"/>
<path d="M169.026 80.9028H147.018V88.9636H169.026V80.9028Z" fill="#EBA154"/>
<path d="M204.414 80.9028H174.097V88.9636H204.414V80.9028Z" fill="white"/>
<path d="M117.346 95.3004H96.7976V103.361H117.346V95.3004Z" fill="#54B3CD"/>
<path d="M158.022 95.3004H122.929V103.361H158.022V95.3004Z" fill="#EBA154"/>
<path d="M204.414 95.3004H163.745V103.361H204.414V95.3004Z" fill="white"/>
<path d="M123.845 109.69H96.7976V117.751H123.845V109.69Z" fill="#54B3CD"/>
<path d="M179.114 109.69H128.241V117.751H179.114V109.69Z" fill="#EBA154"/>
<path d="M204.414 109.69H184.565V117.751H204.414V109.69Z" fill="white"/>
<path d="M130.897 124.088H96.7976V132.149H130.897V124.088Z" fill="#54B3CD"/>
<path d="M169.027 124.088H135.929V132.149H169.027V124.088Z" fill="#EBA154"/>
<path d="M204.414 124.088H174.097V132.149H204.414V124.088Z" fill="white"/>
<path d="M111.754 138.478H96.7976V146.538H111.754V138.478Z" fill="#54B3CD"/>
<path d="M146.412 138.478H116.779V146.538H146.412V138.478Z" fill="#EBA154"/>
<path d="M204.415 138.478H151.026V146.538H204.415V138.478Z" fill="white"/>
<path d="M139.563 152.867H96.7976V160.928H139.563V152.867Z" fill="#54B3CD"/>
<path d="M158.023 152.867H144.875V160.928H158.023V152.867Z" fill="#EBA154"/>
<path d="M204.414 152.867H163.745V160.928H204.414V152.867Z" fill="white"/>
<path d="M152.485 167.265H96.7976V175.326H152.485V167.265Z" fill="#54B3CD"/>
<path d="M179.96 167.265H157.176V175.326H179.96V167.265Z" fill="#EBA154"/>
<path d="M204.414 167.265H184.565V175.326H204.414V167.265Z" fill="white"/>
<path d="M113.851 181.655H96.7976V189.715H113.851V181.655Z" fill="#54B3CD"/>
<path d="M139.564 181.655H118.806V189.715H139.564V181.655Z" fill="#EBA154"/>
<path d="M204.415 181.655H144.875V189.715H204.415V181.655Z" fill="white"/>
<path d="M211.94 80.9028H210.301V189.715H211.94V80.9028Z" fill="white"/>
<path d="M82.9513 88.9636C85.1777 88.9636 86.9817 87.1589 86.9817 84.9332C86.9817 82.7076 85.1777 80.9028 82.9513 80.9028C80.7256 80.9028 78.9209 82.7076 78.9209 84.9332C78.9209 87.1589 80.7256 88.9636 82.9513 88.9636Z" fill="white"/>
<path d="M82.9513 103.361C85.1777 103.361 86.9817 101.556 86.9817 99.3308C86.9817 97.1052 85.1777 95.3004 82.9513 95.3004C80.7256 95.3004 78.9209 97.1052 78.9209 99.3308C78.9209 101.556 80.7256 103.361 82.9513 103.361Z" fill="white"/>
<path d="M82.9513 117.751C85.1777 117.751 86.9817 115.947 86.9817 113.721C86.9817 111.495 85.1777 109.69 82.9513 109.69C80.7256 109.69 78.9209 111.495 78.9209 113.721C78.9209 115.947 80.7256 117.751 82.9513 117.751Z" fill="white"/>
<path d="M82.9513 132.149C85.1777 132.149 86.9817 130.345 86.9817 128.118C86.9817 125.893 85.1777 124.088 82.9513 124.088C80.7256 124.088 78.9209 125.893 78.9209 128.118C78.9209 130.345 80.7256 132.149 82.9513 132.149Z" fill="white"/>
<path d="M82.9513 146.538C85.1777 146.538 86.9817 144.734 86.9817 142.508C86.9817 140.282 85.1777 138.478 82.9513 138.478C80.7256 138.478 78.9209 140.282 78.9209 142.508C78.9209 144.734 80.7256 146.538 82.9513 146.538Z" fill="white"/>
<path d="M82.9513 160.928C85.1777 160.928 86.9817 159.123 86.9817 156.898C86.9817 154.671 85.1777 152.867 82.9513 152.867C80.7256 152.867 78.9209 154.671 78.9209 156.898C78.9209 159.123 80.7256 160.928 82.9513 160.928Z" fill="white"/>
<path d="M82.9513 175.326C85.1777 175.326 86.9817 173.521 86.9817 171.295C86.9817 169.069 85.1777 167.265 82.9513 167.265C80.7256 167.265 78.9209 169.069 78.9209 171.295C78.9209 173.521 80.7256 175.326 82.9513 175.326Z" fill="white"/>
<path d="M82.9513 189.715C85.1777 189.715 86.9817 187.911 86.9817 185.685C86.9817 183.459 85.1777 181.655 82.9513 181.655C80.7256 181.655 78.9209 183.459 78.9209 185.685C78.9209 187.911 80.7256 189.715 82.9513 189.715Z" fill="white"/>
<path d="M213.998 41.1038C213.998 41.9178 213.756 42.7136 213.304 43.3904C212.852 44.0673 212.209 44.5948 211.457 44.9063C210.705 45.2179 209.877 45.2993 209.079 45.1405C208.281 44.9817 207.547 44.5898 206.971 44.0141C206.396 43.4385 206.004 42.7051 205.845 41.9067C205.686 41.1084 205.768 40.2808 206.079 39.5287C206.391 38.7767 206.919 38.1339 207.595 37.6817C208.272 37.2294 209.067 36.988 209.882 36.988C210.423 36.987 210.958 37.0927 211.458 37.2992C211.958 37.5057 212.412 37.8088 212.794 38.1913C213.177 38.5736 213.48 39.0278 213.686 39.5276C213.893 40.0274 213.999 40.563 213.998 41.1038Z" fill="#B83D5D"/>
<path d="M203.832 41.0183C203.833 41.8388 203.592 42.6413 203.137 43.3243C202.682 44.0073 202.035 44.54 201.278 44.855C200.52 45.1701 199.686 45.2533 198.881 45.0941C198.076 44.935 197.336 44.5407 196.756 43.9611C196.175 43.3814 195.779 42.6425 195.619 41.8379C195.458 41.0333 195.539 40.1991 195.853 39.4409C196.167 38.6827 196.698 38.0346 197.381 37.5786C198.063 37.1226 198.865 36.8792 199.685 36.8792C200.229 36.8781 200.768 36.9845 201.271 37.192C201.775 37.3995 202.232 37.7043 202.617 38.0887C203.002 38.4732 203.307 38.9298 203.516 39.4325C203.724 39.9352 203.832 40.474 203.832 41.0183Z" fill="white"/>
<path d="M255.1 58.2117H240.594V62.2731H255.1V58.2117Z" fill="#47547C"/>
<path d="M284.975 50.9739H240.594V55.0353H284.975V50.9739Z" fill="#64648E"/>
<path d="M266.237 63.0497V64.6028" stroke="#FD783D" stroke-width="0.776567" stroke-miterlimit="10"/>
<path d="M266.237 67.2275V76.4066" stroke="#FD783D" stroke-width="0.776567" stroke-miterlimit="10" stroke-dasharray="2.62 2.62"/>
<path d="M266.237 77.7112V79.2643H267.79" stroke="#FD783D" stroke-width="0.776567" stroke-miterlimit="10"/>
<path d="M270.749 79.2643H316.597" stroke="#FD783D" stroke-width="0.776567" stroke-miterlimit="10" stroke-dasharray="2.96 2.96"/>
<path d="M318.081 79.2643H319.634V77.7112" stroke="#FD783D" stroke-width="0.776567" stroke-miterlimit="10"/>
<path d="M319.634 74.566V69.8367" stroke="#FD783D" stroke-width="0.776567" stroke-miterlimit="10" stroke-dasharray="3.15 3.15"/>
<path d="M319.634 68.2604V66.7073" stroke="#FD783D" stroke-width="0.776567" stroke-miterlimit="10"/>
<path d="M246.592 40.1368C243.371 40.1368 241.01 37.9757 241.01 34.8985C241.01 31.8215 243.371 29.6603 246.592 29.6603C248.552 29.6603 250.098 30.3759 251.086 31.664L248.952 33.5675C248.366 32.8233 247.665 32.3939 246.763 32.3939C245.361 32.3939 244.416 33.3671 244.416 34.8985C244.416 36.4299 245.361 37.4032 246.763 37.4032C247.665 37.4032 248.366 36.9738 248.952 36.2296L251.086 38.1331C250.098 39.4212 248.552 40.1368 246.592 40.1368ZM255.657 40.1368C253.982 40.1368 252.293 39.7217 251.291 39.1063L252.379 36.6446C253.324 37.2028 254.583 37.5606 255.685 37.5606C256.644 37.5606 256.988 37.3602 256.988 37.0168C256.988 35.7573 251.448 36.7735 251.448 33.038C251.448 31.1774 253.009 29.6603 256.114 29.6603C257.46 29.6603 258.848 29.9465 259.893 30.5334L258.876 32.9807C257.889 32.4798 256.959 32.2365 256.086 32.2365C255.098 32.2365 254.783 32.5227 254.783 32.8663C254.783 34.0685 260.322 33.0666 260.322 36.7591C260.322 38.5911 258.762 40.1368 255.657 40.1368ZM265.062 40.1368C263.388 40.1368 261.699 39.7217 260.697 39.1063L261.785 36.6446C262.73 37.2028 263.989 37.5606 265.091 37.5606C266.05 37.5606 266.393 37.3602 266.393 37.0168C266.393 35.7573 260.855 36.7735 260.855 33.038C260.855 31.1774 262.415 29.6603 265.521 29.6603C266.866 29.6603 268.254 29.9465 269.299 30.5334L268.283 32.9807C267.295 32.4798 266.365 32.2365 265.492 32.2365C264.505 32.2365 264.19 32.5227 264.19 32.8663C264.19 34.0685 269.728 33.0666 269.728 36.7591C269.728 38.5911 268.169 40.1368 265.062 40.1368Z" fill="#8A27FA"/>
<path d="M331.422 50.1895C331.263 49.6603 331.071 49.1415 330.847 48.6364C329.64 45.9274 327.487 43.7517 324.79 42.517C324.767 42.5099 324.743 42.5099 324.72 42.517C323.186 41.8106 321.521 41.4319 319.833 41.4052C318.144 41.3784 316.468 41.7042 314.912 42.3617L314.663 42.4704C312.127 43.6033 310.05 45.5641 308.773 48.0317C307.496 50.4993 307.095 53.3274 307.635 56.0526C308.17 58.8533 309.665 61.3798 311.862 63.1971C314.059 65.0144 316.821 66.0086 319.672 66.0086C322.524 66.0086 325.286 65.0144 327.483 63.1971C329.68 61.3798 331.175 58.8533 331.709 56.0526C332.095 54.1042 331.996 52.0909 331.422 50.1895ZM323.12 61.3798C321.06 62.2877 318.724 62.345 316.621 61.5393C314.518 60.7337 312.818 59.1302 311.891 57.0777C311.736 56.7294 311.604 56.3714 311.495 56.006C311.181 54.9183 311.088 53.7786 311.221 52.6543C311.355 51.5299 311.712 50.4437 312.271 49.4595V49.4052C313.163 47.8291 314.538 46.582 316.193 45.8485C316.511 45.7065 316.838 45.5872 317.172 45.4913C317.205 45.4834 317.24 45.4834 317.273 45.4913C318.933 45.0008 320.703 45.0333 322.343 45.5845C323.737 46.0318 324.992 46.8316 325.986 47.9064C326.58 48.5628 327.065 49.31 327.422 50.1196C327.647 50.6196 327.824 51.1396 327.95 51.6727C328.381 53.5909 328.135 55.5985 327.257 57.357C326.378 59.1154 324.92 60.5171 323.128 61.3255L323.12 61.3798Z" fill="#64648E"/>
<path d="M331.647 55.975H327.764C328.179 54.5847 328.228 53.1104 327.904 51.6961C327.777 51.163 327.6 50.643 327.376 50.1429C327.035 49.3282 326.566 48.5731 325.986 47.9064C324.996 46.8106 323.738 45.9916 322.336 45.5301C320.696 44.979 318.925 44.9465 317.265 45.4369C317.232 45.429 317.197 45.429 317.164 45.4369C316.83 45.5328 316.503 45.6521 316.185 45.7942C314.515 46.5409 313.133 47.8111 312.248 49.413V49.4673C311.688 50.4514 311.331 51.5377 311.198 52.662C311.065 53.7864 311.158 54.926 311.472 56.0138H307.589C307.048 53.2846 307.451 50.4527 308.733 47.9831C310.014 45.5135 312.097 43.5531 314.64 42.4239L314.888 42.3152C316.445 41.6576 318.121 41.3319 319.809 41.3586C321.498 41.3853 323.163 41.764 324.697 42.4705C324.72 42.4633 324.744 42.4633 324.766 42.4705C327.463 43.705 329.617 45.8808 330.824 48.5898C331.048 49.0949 331.24 49.6136 331.398 50.1429C331.954 52.0378 332.04 54.0397 331.647 55.975Z" fill="#B83D5D"/>
<path d="M284.984 58.2117H258.013V62.2731H284.984V58.2117Z" fill="#64648E"/>
<path d="M37.7433 36.3549C37.7433 37.9956 37.2306 38.7545 36.0821 39.1032C37.2306 39.4518 37.7433 40.2106 37.7433 41.8514V43.7998C37.7433 44.7021 38.2356 45.2149 39.1995 45.2149H39.4046V48.7015H37.8869C34.708 48.7015 33.1083 47.1017 33.1083 44.333V41.7489C33.1083 41.1336 32.7391 40.8464 32.2264 40.8464H31.5496V37.3599H32.2264C32.7391 37.3599 33.1083 37.0728 33.1083 36.4575V33.8733C33.1083 31.1046 34.708 29.5049 37.8869 29.5049H39.4046V32.9914H39.1995C38.2356 32.9914 37.7433 33.5041 37.7433 34.4066V36.3549ZM53.1515 37.3599H53.8282V40.8464H53.1515C52.6387 40.8464 52.2696 41.1336 52.2696 41.7489V44.333C52.2696 47.1017 50.6699 48.7015 47.4909 48.7015H45.9733V45.2149H46.1784C47.1423 45.2149 47.6345 44.7021 47.6345 43.7998V41.8514C47.6345 40.2106 48.1472 39.4518 49.2957 39.1032C48.1472 38.7545 47.6345 37.9956 47.6345 36.3549V34.4066C47.6345 33.5041 47.1423 32.9914 46.1784 32.9914H45.9733V29.5049H47.4909C50.6699 29.5049 52.2696 31.1046 52.2696 33.8733V36.4575C52.2696 37.0728 52.6387 37.3599 53.1515 37.3599Z" fill="#323247"/>
<path d="M46.4609 68.7882H30.5103V76.3986H46.4609V68.7882Z" fill="white"/>
<path d="M46.4609 82.0833H30.5103V89.6936H46.4609V82.0833Z" fill="white"/>
<path d="M46.4609 95.3859H30.5103V102.996H46.4609V95.3859Z" fill="#EBA154"/>
<path d="M46.4609 108.681H30.5103V116.291H46.4609V108.681Z" fill="#EBA154"/>
<path d="M46.4609 121.975H30.5103V129.586H46.4609V121.975Z" fill="#EBA154"/>
<path d="M46.4609 135.278H30.5103V142.888H46.4609V135.278Z" fill="#EBA154"/>
<path d="M46.4609 148.573H30.5103V156.183H46.4609V148.573Z" fill="#EBA154"/>
<path d="M497.211 218.464C497.211 218.41 497.211 218.355 497.211 218.301C497.211 218.247 497.211 218.2 497.211 218.153C498.036 217.777 498.834 217.342 499.595 216.849C500.481 216.249 501.315 215.577 502.088 214.837L501.917 214.154C501.727 213.39 501.483 212.64 501.187 211.91C501.031 211.552 500.853 211.195 500.682 210.846C500.523 210.486 500.333 210.141 500.115 209.813L499.758 209.215C498.686 209.234 497.618 209.345 496.566 209.549C495.682 209.738 494.815 209.999 493.973 210.326L493.747 210.1C494.075 209.255 494.334 208.385 494.524 207.499C494.734 206.45 494.848 205.384 494.866 204.315L494.268 203.958C493.941 203.739 493.595 203.549 493.235 203.391C492.878 203.22 492.528 203.041 492.163 202.886C491.434 202.589 490.684 202.346 489.919 202.156L489.243 201.977C488.502 202.753 487.827 203.59 487.224 204.478C486.733 205.239 486.298 206.036 485.927 206.862H485.772H485.617C485.252 206.033 484.818 205.235 484.32 204.478C483.72 203.59 483.048 202.753 482.308 201.977L481.633 202.156C480.866 202.346 480.113 202.589 479.381 202.886C479.024 203.041 478.674 203.22 478.309 203.391C477.95 203.551 477.605 203.74 477.276 203.958L476.678 204.315C476.703 205.384 476.817 206.449 477.02 207.499C477.21 208.385 477.47 209.255 477.797 210.1L477.571 210.326C476.729 209.999 475.861 209.74 474.978 209.549C473.925 209.345 472.858 209.234 471.786 209.215L471.421 209.813C471.21 210.145 471.02 210.489 470.854 210.846C470.691 211.195 470.512 211.552 470.357 211.91C470.062 212.64 469.818 213.39 469.627 214.154L469.456 214.837C470.228 215.578 471.062 216.251 471.949 216.849C472.707 217.343 473.501 217.779 474.325 218.153C474.325 218.2 474.325 218.247 474.325 218.301C474.325 218.355 474.325 218.41 474.325 218.464C473.501 218.833 472.705 219.266 471.949 219.761C471.062 220.359 470.228 221.031 469.456 221.772L469.627 222.448C469.818 223.214 470.062 223.967 470.357 224.7C470.512 225.057 470.691 225.406 470.854 225.764C471.022 226.119 471.211 226.464 471.421 226.797L471.786 227.394C472.858 227.376 473.925 227.264 474.978 227.061C475.861 226.87 476.729 226.61 477.571 226.284C477.643 226.363 477.718 226.438 477.797 226.509C477.47 227.353 477.211 228.219 477.02 229.103C476.818 230.153 476.704 231.218 476.678 232.287L477.276 232.66C477.609 232.865 477.955 233.053 478.309 233.219C478.674 233.39 479.024 233.568 479.381 233.723C480.113 234.02 480.866 234.264 481.633 234.453L482.308 234.624C483.048 233.851 483.72 233.018 484.32 232.132C484.815 231.373 485.249 230.575 485.617 229.747H485.772H485.927C486.302 230.572 486.736 231.369 487.224 232.132C487.827 233.018 488.502 233.851 489.243 234.624L489.919 234.453C490.684 234.264 491.434 234.02 492.163 233.723C492.528 233.568 492.878 233.39 493.235 233.219C493.59 233.054 493.935 232.868 494.268 232.66L494.866 232.287C494.848 231.217 494.734 230.152 494.524 229.103C494.334 228.219 494.073 227.352 493.747 226.509C493.825 226.439 493.895 226.362 493.973 226.284C494.815 226.611 495.682 226.871 496.566 227.061C497.618 227.265 498.686 227.376 499.758 227.394L500.115 226.797C500.332 226.468 500.521 226.122 500.682 225.764C500.853 225.406 501.031 225.057 501.187 224.7C501.483 223.967 501.727 223.214 501.917 222.448L502.088 221.772C501.315 221.033 500.481 220.36 499.595 219.761C498.835 219.268 498.038 218.834 497.211 218.464ZM485.756 223.783C484.672 223.783 483.612 223.462 482.711 222.859C481.809 222.257 481.106 221.401 480.692 220.399C480.276 219.397 480.168 218.295 480.379 217.232C480.591 216.168 481.113 215.191 481.88 214.424C482.646 213.657 483.623 213.135 484.687 212.924C485.75 212.712 486.853 212.821 487.855 213.235C488.856 213.651 489.713 214.354 490.315 215.255C490.917 216.157 491.239 217.217 491.239 218.301C491.239 219.755 490.662 221.149 489.633 222.177C488.605 223.206 487.211 223.783 485.756 223.783Z" fill="#323247"/>
<path d="M446.851 198.11H439.614V230.703H446.851V198.11Z" fill="#B83D5D"/>
<path d="M436.701 212.469H428.943V230.703H436.701V212.469Z" fill="#64648E"/>
<path d="M425.954 218.301H418.196V230.695H425.954V218.301Z" fill="#FD783D"/>
<path d="M416.821 225.507H415.268" stroke="#FD783D" stroke-width="0.776567" stroke-miterlimit="10"/>
<path d="M411.331 225.507H405.429" stroke="#FD783D" stroke-width="0.776567" stroke-miterlimit="10" stroke-dasharray="3.94 3.94"/>
<path d="M403.457 225.507H401.904V227.06" stroke="#FD783D" stroke-width="0.776567" stroke-miterlimit="10"/>
<path d="M401.904 229.965V251.755" stroke="#FD783D" stroke-width="0.776567" stroke-miterlimit="10" stroke-dasharray="2.9 2.9"/>
<path d="M401.904 253.208V254.761H403.457" stroke="#FD783D" stroke-width="0.776567" stroke-miterlimit="10"/>
<path d="M406.096 254.761H415.322" stroke="#FD783D" stroke-width="0.776567" stroke-miterlimit="10" stroke-dasharray="2.64 2.64"/>
<path d="M416.643 254.761H418.196" stroke="#FD783D" stroke-width="0.776567" stroke-miterlimit="10"/>
<path d="M441.175 253.308H420.65V256.974H441.175V253.308Z" fill="white"/>
<path d="M434.846 260.096H420.65V263.761H434.846V260.096Z" fill="white"/>
<path d="M438.62 266.883H420.65V270.548H438.62V266.883Z" fill="white"/>
<path d="M446.532 266.883H442.339V270.548H446.532V266.883Z" fill="#EBA154"/>
<path d="M465.806 266.883H450.376V270.548H465.806V266.883Z" fill="#EBA154"/>
<path d="M465.807 260.096H439.396V263.761H465.807V260.096Z" fill="#EBA154"/>
<path d="M465.815 253.308H445.29V256.974H465.815V253.308Z" fill="#EBA154"/>
<path d="M536.195 216.313H522.675V222.766H536.195V216.313Z" fill="#B83D5D"/>
<path d="M536.195 227.589H522.675V234.042H536.195V227.589Z" fill="#B83D5D"/>
<path d="M536.195 238.864H522.675V245.318H536.195V238.864Z" fill="#B83D5D"/>
<path d="M536.195 250.14H522.675V256.593H536.195V250.14Z" fill="#B83D5D"/>
<path d="M536.195 261.416H522.675V267.869H536.195V261.416Z" fill="white"/>
<path d="M536.195 272.692H522.675V279.145H536.195V272.692Z" fill="white"/>
<path d="M536.195 283.967H522.675V290.421H536.195V283.967Z" fill="white"/>
<path d="M477.238 308.911C472.751 309.328 468.249 308.27 464.417 305.898C450.151 297.068 447.169 272.171 446.967 270.3C447.091 270.874 448.52 273.919 463.329 283.897C464.556 284.726 465.688 285.569 466.723 286.429L466.777 286.468C479.699 297.138 477.238 308.911 477.238 308.911Z" fill="#0C8068"/>
<path d="M446.96 270.191C446.96 270.191 460.278 302.885 475.056 306.325" stroke="#0A6D53" stroke-width="0.776567" stroke-miterlimit="10"/>
<path opacity="0.5" d="M477.238 308.911C472.751 309.328 468.249 308.27 464.417 305.897C467.252 299.18 466.747 286.429 466.747 286.429L466.801 286.468C479.7 297.138 477.238 308.911 477.238 308.911Z" fill="#0A6D53"/>
<path d="M515.104 272.125C515.042 272.466 514.848 273.678 514.444 275.456C512.339 284.876 504.744 310.239 484.305 307.699C484.119 305.88 484.237 304.043 484.655 302.263C485.664 297.48 488.91 290.351 498.796 284.402C513.465 275.51 514.949 272.66 515.104 272.125Z" fill="#0C8068"/>
<path d="M514.444 274.136C514.444 274.136 503.96 301.316 485.757 306.853" stroke="#0A6D53" stroke-width="0.776567" stroke-miterlimit="10"/>
<path opacity="0.5" d="M514.444 275.456C512.339 284.876 504.744 310.239 484.305 307.699C484.119 305.881 484.237 304.043 484.655 302.263C501.677 303.187 514.444 275.456 514.444 275.456Z" fill="#0A6D53"/>
<path d="M483.21 308.616C482.705 309.493 475.242 306.387 471.88 297.417C469.861 292.028 469.325 284.511 472.656 274.478C481.416 248.121 477.805 243.159 477.696 243.019C483.111 246.045 487.525 250.584 490.401 256.081V256.12C495.829 266.269 497.934 282.997 483.21 308.616Z" fill="#159A7A"/>
<path d="M477.697 243.011C477.697 243.011 489.128 257.432 484.771 284.868C480.415 312.304 483.218 308.616 483.218 308.616" stroke="#0C8068" stroke-width="0.776567" stroke-miterlimit="10"/>
<path opacity="0.5" d="M483.209 308.616C482.704 309.493 475.242 306.387 471.879 297.417C490.695 302.76 490.4 256.081 490.4 256.081V256.12C495.828 266.269 497.933 282.997 483.209 308.616Z" fill="#0C8068"/>
<path d="M446.952 270.191V270.284C446.948 270.253 446.948 270.222 446.952 270.191Z" fill="#0C8068"/>
<path d="M497.678 308.219V329.288C497.678 332.247 496.501 335.086 494.409 337.178C492.316 339.271 489.478 340.447 486.517 340.447H476.64C474.726 340.449 472.844 339.957 471.175 339.02C469.506 338.083 468.107 336.732 467.111 335.096C466.046 333.347 465.483 331.336 465.488 329.288V308.219H497.678Z" fill="#EBA154"/>
<path d="M498.842 305.486H464.277C463.822 305.486 463.453 305.855 463.453 306.309V307.396C463.453 307.851 463.822 308.219 464.277 308.219H498.842C499.297 308.219 499.665 307.851 499.665 307.396V306.309C499.665 305.855 499.297 305.486 498.842 305.486Z" fill="#EBA154"/>
<path d="M497.677 308.219V329.288C497.677 332.247 496.501 335.086 494.408 337.178C492.316 339.271 489.477 340.447 486.517 340.447H476.64C474.726 340.449 472.844 339.957 471.175 339.02C469.506 338.083 468.107 336.732 467.111 335.096C490.711 342.505 495.844 325.149 494.928 318.268C494.011 311.388 485.508 308.219 485.508 308.219H497.677Z" fill="#DC831E"/>
</svg>
